<svg xmlns="http://www.w3.org/2000/svg" x="0" y="0" width="64" height="64" viewBox="1734 955 500 500" enable-background="new 1734.25 954.73 500 500" xml:space="preserve"><circle fill="#F3D759" cx="1906" cy="1224" r="77"/><circle fill="#FFFFFF" cx="2028" cy="1257" r="85"/><polygon fill="#2277AB" points="2045 1133 2049 1133 2060 1116 2065 1116 2077 1103 2077 1103 2077 1103 2077 1103 2077 1103 2067 1095 2061 1095 2058 1084 2049 1084 2049 1069 2033 1069 2028 1007 2023 1069 2007 1069 2007 1084 1997 1084 1995 1095 1989 1095 1980 1103 1979 1103 1979 1103 1979 1103 1980 1103 1991 1116 1996 1116 2007 1133 2011 1133 2011 1140 2014 1140 1979 1403 2077 1403 2042 1140 2045 1140"/><path fill="#FFFFFF" d="M2097 1242c-29 0-55 15-71 38 -7-36-38-63-76-63 -38 0-69 27-76 63 -7-2-14-4-22-4 -38 0-68 31-68 68 0 34 25 62 57 67v1h4c2 0 4 0 6 0s4 0 6 0h230c2 0 5 0 7 0 47 0 85-38 85-85S2144 1242 2097 1242z"/></svg>